<?xml version="1.0" encoding="UTF-8" standalone="no"?>
<!DOCTYPE svg PUBLIC "-//W3C//DTD SVG 1.1//EN" "http://www.w3.org/Graphics/SVG/1.1/DTD/svg11.dtd">
<svg width="50px" height="50px" viewBox="0 0 65 47" version="1.1" xmlns="http://www.w3.org/2000/svg" xmlns:xlink="http://www.w3.org/1999/xlink" xml:space="preserve" xmlns:serif="http://www.serif.com/" style="fill-rule:evenodd;clip-rule:evenodd;stroke-linejoin:round;stroke-miterlimit:2;">
    <g transform="matrix(1,0,0,1,-98.8945,-132.282)">
        <g transform="matrix(0.887783,0,0,0.887783,-314.484,-263.803)">
            <path d="M536.592,478.507C536.592,480.621 534.871,482.342 532.757,482.342L531.502,482.342L531.502,492.945C531.502,495.836 529.15,498.188 526.259,498.188C523.367,498.188 521.016,495.836 521.016,492.945L520.903,474.976L483.041,474.976L483.154,492.945C483.154,495.836 480.802,498.188 477.911,498.188C475.021,498.188 472.669,495.836 472.669,492.945L472.669,482.342L471.413,482.342C469.298,482.342 467.578,480.621 467.578,478.507L467.578,475.926C467.51,475.934 467.451,475.966 467.381,475.966C466.418,475.966 465.63,475.178 465.63,474.216L465.63,467.555C465.63,466.592 466.418,465.805 467.381,465.805C467.451,465.805 467.51,465.837 467.578,465.845L467.578,464.818C467.578,462.703 469.298,460.983 471.413,460.983L472.669,460.983L472.669,451.393C472.669,448.503 475.021,446.151 477.911,446.151C480.802,446.151 483.154,448.503 483.154,451.393L483.041,467.463L520.903,467.463L521.016,451.393C521.016,448.503 523.367,446.151 526.259,446.151C529.15,446.151 531.502,448.503 531.502,451.393L531.502,460.983L532.757,460.983C534.871,460.983 536.592,462.703 536.592,464.818L536.592,465.85C537.447,465.963 538.122,466.67 538.122,467.555L538.122,474.216C538.122,475.101 537.447,475.808 536.592,475.922L536.592,478.507ZM471.413,479.235L472.669,479.235L472.669,464.09L471.413,464.09C471.011,464.09 470.685,464.417 470.685,464.818L470.685,478.507C470.685,478.908 471.011,479.235 471.413,479.235ZM531.502,464.09L531.502,479.235L532.757,479.235C533.158,479.235 533.485,478.908 533.485,478.507L533.485,464.818C533.485,464.417 533.158,464.09 532.757,464.09L531.502,464.09Z" style="fill:white;"/>
        </g>
    </g>
</svg>
