<?xml version="1.0" encoding="UTF-8" standalone="no"?>
<!DOCTYPE svg PUBLIC "-//W3C//DTD SVG 1.1//EN" "http://www.w3.org/Graphics/SVG/1.1/DTD/svg11.dtd">
<svg width="100%" height="100%" viewBox="0 0 3508 2481" version="1.1" xmlns="http://www.w3.org/2000/svg" xmlns:xlink="http://www.w3.org/1999/xlink" xml:space="preserve" xmlns:serif="http://www.serif.com/" style="fill-rule:evenodd;clip-rule:evenodd;stroke-linejoin:round;stroke-miterlimit:2;">
    <g transform="matrix(2.02786,0,0,2.02786,-674.337,-130.025)">
        <path d="M759.807,435.432L627.723,435.432L627.723,588.226L498.07,588.226L498.07,559.015L465.785,559.015L465.785,439.099L390.453,439.099L390.453,412.964L362.268,412.964L362.268,389.391L390.453,389.391L390.453,363.255L465.785,363.255L465.785,239.752L498.07,239.752L498.07,213.617L627.723,213.617L627.723,366.41L1767.19,366.41L1767.19,213.617L1896.84,213.617L1896.84,239.752L1929.12,239.752L1929.12,363.255L2004.46,363.255L2004.46,389.391L2032.64,389.391L2032.64,412.964L2004.46,412.964L2004.46,439.099L1929.12,439.099L1929.12,559.015L1896.84,559.015L1896.84,588.226L1767.19,588.226L1767.19,435.432L1635.1,435.432L1635.1,899.022L1555.53,899.022L1555.53,978.594L1475.96,978.594L1475.96,1058.17L1396.38,1058.17L1396.38,978.594L998.524,978.594L998.524,1058.17L918.952,1058.17L918.952,978.594L839.379,978.594L839.379,899.022L759.807,899.022L759.807,435.432ZM1555.53,435.432L839.379,435.432L839.379,739.878L918.952,739.878L918.952,660.305L998.524,660.305L998.524,580.733L1078.1,580.733L1078.1,660.305L1316.81,660.305L1316.81,580.733L1396.38,580.733L1396.38,660.305L1475.96,660.305L1475.96,739.878L1555.53,739.878L1555.53,435.432ZM998.524,580.733L918.952,580.733L918.952,501.161L998.524,501.161L998.524,580.733ZM1396.38,580.733L1396.38,501.161L1475.96,501.161L1475.96,580.733L1396.38,580.733ZM918.952,1058.17L918.952,1137.74L839.379,1137.74L839.379,1058.17L918.952,1058.17ZM1475.96,1058.17L1555.53,1058.17L1555.53,1137.74L1475.96,1137.74L1475.96,1058.17ZM1396.38,819.45L1396.38,739.878L1316.81,739.878L1316.81,819.45L1396.38,819.45ZM1078.1,819.45L1078.1,739.878L998.524,739.878L998.524,819.45L1078.1,819.45Z" style="fill:white;"/>
    </g>
</svg>
