<?xml version="1.0" encoding="UTF-8" standalone="no"?>
<!DOCTYPE svg PUBLIC "-//W3C//DTD SVG 1.1//EN" "http://www.w3.org/Graphics/SVG/1.1/DTD/svg11.dtd">
<svg width="100%" height="100%" viewBox="0 0 500 500" version="1.1" xmlns="http://www.w3.org/2000/svg" xmlns:xlink="http://www.w3.org/1999/xlink" xml:space="preserve" xmlns:serif="http://www.serif.com/" style="fill-rule:evenodd;clip-rule:evenodd;stroke-linecap:round;stroke-linejoin:round;stroke-miterlimit:2;">
    <g transform="matrix(2.25842,0,0,2.25842,-34.0226,-18.3386)">
        <g>
            <path d="M144.747,128.887C144.747,128.887 145.268,129.324 147.12,128.755C148.972,128.186 148.499,122.867 148.499,122.867L144.747,126.63L144.747,128.887Z" style="fill:rgb(104,71,156);fill-rule:nonzero;"/>
            <path d="M113.261,128.887C113.261,128.887 112.374,129.177 110.708,128.755C109.041,128.333 115.313,120.687 115.313,120.687L113.261,128.887Z" style="fill:rgb(104,71,156);fill-rule:nonzero;"/>
            <rect x="217.614" y="152.096" width="13.242" height="5.116" style="fill:rgb(148,153,172);fill-rule:nonzero;"/>
            <path d="M219.568,128.937L215.659,128.937C213.5,128.937 211.75,140.451 211.75,154.654C211.75,168.857 213.5,180.371 215.659,180.371L219.568,180.371C221.728,180.371 223.478,168.857 223.478,154.654C223.478,140.451 221.728,128.937 219.568,128.937Z" style="fill:rgb(54,59,76);fill-rule:nonzero;"/>
            <path d="M213.446,120.638L208.275,120.638L208.275,188.669L213.446,188.669C216.301,188.669 218.616,173.44 218.616,154.654C218.616,135.868 216.301,120.638 213.446,120.638Z" style="fill:rgb(148,153,172);fill-rule:nonzero;"/>
            <path d="M213.446,154.654C213.446,173.44 211.131,188.669 208.275,188.669C205.42,188.669 203.105,173.44 203.105,154.654C203.105,135.868 205.42,120.638 208.275,120.638C211.131,120.638 213.446,135.868 213.446,154.654Z" style="fill:rgb(54,59,76);fill-rule:nonzero;"/>
            <path d="M169.063,127.158L161.837,167.531C161.837,167.531 158.979,172.618 148.815,168.397L147.116,128.756L143.401,125.424L127.936,111.58L154.601,100.572L169.063,127.158Z" style="fill:rgb(248,177,179);fill-rule:nonzero;"/>
            <path d="M148.684,165.2L147.405,172.812C147.244,173.769 147.847,174.688 148.789,174.922L175.241,175.859C175.241,175.859 177.235,175.859 176.451,173.295C175.668,170.731 162.309,164.898 162.309,164.898C162.309,164.898 161.709,162.899 158.718,163.896C155.727,164.893 154.801,169.024 154.801,169.024C154.801,169.024 149.403,168.854 148.684,165.2Z" style="fill:rgb(54,59,76);fill-rule:nonzero;"/>
            <path d="M158.788,121.327C152.484,123.77 147.116,128.756 147.116,128.756L143.401,125.424L143.165,121.203L160.239,115.452C160.239,115.452 165.09,118.874 158.788,121.327Z" style="fill:rgb(243,121,125);fill-rule:nonzero;"/>
            <path d="M128.981,113.13L128.981,65.393C128.981,65.393 101.375,67.537 91.628,74.03L104.786,104.138C104.786,104.138 109.588,110.786 128.981,113.13Z" style="fill:rgb(248,177,179);fill-rule:nonzero;"/>
            <path d="M128.981,113.13L128.981,65.393C128.981,65.393 156.588,67.537 166.334,74.03L153.176,104.138C153.176,104.138 148.375,110.786 128.981,113.13Z" style="fill:rgb(248,177,179);fill-rule:nonzero;"/>
            <path d="M129.895,111.58L119.382,120.99L110.704,128.756L109.004,168.397C98.84,172.618 95.993,167.531 95.993,167.531L88.767,127.158L93.449,118.547L94.665,116.307L103.23,100.572L129.895,111.58Z" style="fill:rgb(248,177,179);fill-rule:nonzero;"/>
            <path d="M119.382,120.99L110.704,128.756C110.704,128.756 101.002,121.136 95.374,119.549C94.327,119.256 93.73,118.907 93.449,118.547C92.875,117.804 93.663,116.971 94.665,116.307C95.756,115.587 97.096,115.058 97.096,115.058L114.846,115.058L119.382,120.99Z" style="fill:rgb(243,121,125);fill-rule:nonzero;"/>
            <path d="M109.144,165.2L110.423,172.812C110.583,173.769 109.981,174.688 109.039,174.922L82.587,176.985C82.587,176.985 80.593,176.985 81.376,174.421C82.16,171.857 95.518,164.898 95.518,164.898C95.518,164.898 96.118,162.899 99.109,163.896C102.101,164.893 103.027,169.024 103.027,169.024C103.027,169.024 108.425,168.854 109.144,165.2Z" style="fill:rgb(54,59,76);fill-rule:nonzero;"/>
            <rect x="128.981" y="152.096" width="79.299" height="5.116" style="fill:rgb(148,153,172);fill-rule:nonzero;"/>
            <rect x="27.036" y="152.096" width="13.241" height="5.116" style="fill:rgb(148,153,172);fill-rule:nonzero;"/>
            <path d="M38.323,128.937L42.232,128.937C44.391,128.937 46.141,140.451 46.141,154.654C46.141,168.857 44.391,180.371 42.232,180.371L38.323,180.371C36.164,180.371 34.414,168.857 34.414,154.654C34.414,140.451 36.164,128.937 38.323,128.937Z" style="fill:rgb(54,59,76);fill-rule:nonzero;"/>
            <path d="M44.445,120.638L49.616,120.638L49.616,188.669L44.445,188.669C41.59,188.669 39.275,173.44 39.275,154.654C39.275,135.868 41.59,120.638 44.445,120.638Z" style="fill:rgb(148,153,172);fill-rule:nonzero;"/>
            <path d="M44.445,154.654C44.445,173.44 46.76,188.669 49.616,188.669C52.471,188.669 54.786,173.44 54.786,154.654C54.786,135.868 52.471,120.638 49.616,120.638C46.76,120.638 44.445,135.868 44.445,154.654Z" style="fill:rgb(54,59,76);fill-rule:nonzero;"/>
            <rect x="49.611" y="152.096" width="79.299" height="5.116" style="fill:rgb(148,153,172);fill-rule:nonzero;"/>
            <path d="M144.748,86.024C144.085,80.319 148.634,68.117 148.634,68.117L144.583,67.375C144.583,67.375 141.034,76.737 140.105,84.564C140.105,84.564 139.216,90.402 128.981,90.8C118.747,90.402 117.858,84.564 117.858,84.564C116.929,76.737 113.379,67.375 113.379,67.375L109.329,68.117C109.329,68.117 113.878,80.319 113.214,86.024C112.551,91.728 101.54,101.279 101.54,101.279C110.163,113.352 128.981,113.13 128.981,113.13C128.981,113.13 147.799,113.352 156.422,101.279C156.422,101.279 145.412,91.728 144.748,86.024Z" style="fill:rgb(54,59,76);fill-rule:nonzero;"/>
            <path d="M90.879,146.735L110.171,87.646C110.171,87.646 114.135,74.933 100.525,72.76C84.347,70.178 83.132,90.229 83.132,90.229L77.512,146.735L76.161,157.459C75.979,158.906 76.959,160.236 78.395,160.491C81.095,160.971 85.587,161.354 90.08,159.898L92.731,157.212C92.731,157.212 90.698,156.744 90.582,154.429C90.466,152.114 92.607,152.23 92.607,152.23L95.903,152.096C95.903,152.096 94.127,148.012 90.879,146.735Z" style="fill:rgb(248,177,179);fill-rule:nonzero;"/>
            <path d="M167.083,146.735L147.792,87.646C147.792,87.646 143.828,74.933 157.438,72.76C173.615,70.178 174.831,90.229 174.831,90.229L180.451,146.735L181.812,157.544C181.988,158.943 181.039,160.226 179.65,160.477C176.959,160.963 172.421,161.369 167.882,159.898L165.318,157.212C165.318,157.212 167.265,156.744 167.38,154.429C167.496,152.114 165.355,152.23 165.355,152.23L162.107,152.096C162.107,152.096 163.835,148.012 167.083,146.735Z" style="fill:rgb(248,177,179);fill-rule:nonzero;"/>
            <path d="M113.261,128.887C113.261,128.887 106.737,122.056 99.496,120.341L104.786,104.138C104.786,104.138 120.708,112.966 128.981,113.13L113.261,128.887Z" style="fill:rgb(128,96,169);fill-rule:nonzero;"/>
            <path d="M144.747,128.887C144.747,128.887 151.27,122.056 158.511,120.341L153.221,104.138C153.221,104.138 137.3,112.966 129.026,113.13L144.747,128.887Z" style="fill:rgb(128,96,169);fill-rule:nonzero;"/>
            <path d="M120.699,75.198C120.699,75.198 123.623,82.049 131.111,84.923C131.111,84.923 135.96,85.504 137.797,74.335C137.797,74.335 134.542,80.145 128.213,79.244C121.883,78.343 120.699,75.198 120.699,75.198Z" style="fill:rgb(243,121,125);fill-rule:nonzero;"/>
            <path d="M114.841,127.303C114.841,127.303 109.297,121.541 100.246,118.317" style="fill:none;stroke:rgb(41,27,17);stroke-width:0.25px;"/>
            <path d="M143.167,127.303C143.167,127.303 148.406,121.169 157.806,118.317" style="fill:none;stroke:rgb(41,27,17);stroke-width:0.25px;"/>
            <path d="M144.251,126.186L131.343,112.901" style="fill:none;stroke:rgb(41,27,17);stroke-width:0.25px;"/>
            <path d="M113.884,126.398L126.664,112.901" style="fill:none;stroke:rgb(41,27,17);stroke-width:0.25px;"/>
            <path d="M169.951,160.445C169.951,160.445 171.128,158.833 171.434,156.34" style="fill:none;stroke:rgb(243,121,125);stroke-width:0.25px;"/>
            <path d="M174.232,160.917C174.232,160.917 175.097,159.952 175.503,156.34" style="fill:none;stroke:rgb(243,121,125);stroke-width:0.25px;"/>
            <path d="M178.198,160.699C178.198,160.699 179.217,158.782 179.217,156.34" style="fill:none;stroke:rgb(243,121,125);stroke-width:0.25px;"/>
            <path d="M87.313,160.579C87.313,160.579 86.004,158.84 86.004,155.818" style="fill:none;stroke:rgb(243,121,125);stroke-width:0.25px;"/>
            <path d="M82.5,160.911C82.5,160.911 81.609,158.497 81.747,156.162" style="fill:none;stroke:rgb(243,121,125);stroke-width:0.25px;"/>
            <path d="M78.395,160.491C78.395,160.491 77.583,158.428 78.395,156.162" style="fill:none;stroke:rgb(243,121,125);stroke-width:0.25px;"/>
            <path d="M107.733,95.112L90.879,146.735C90.879,146.735 94.609,148.374 95.903,152.096" style="fill:none;stroke:rgb(243,121,125);stroke-width:0.25px;"/>
            <path d="M150.23,95.115L167.083,146.735C167.083,146.735 162.926,148.53 162.107,152.096" style="fill:none;stroke:rgb(243,121,125);stroke-width:0.25px;"/>
            <path d="M142.312,63.709C141.167,62.254 139.635,63.166 139.635,63.166C138.609,52.733 128.979,52.733 128.979,52.733C128.979,52.733 119.863,53.686 118.837,64.12C118.837,64.12 118.35,61.322 115.73,63.512C114.625,64.436 114.839,67.809 118.437,69.063C118.437,69.063 118.904,78.221 128.979,79.244C139.057,78.221 139.523,69.063 139.523,69.063C143.121,67.809 143.203,64.841 142.312,63.709Z" style="fill:rgb(248,177,179);fill-rule:nonzero;"/>
            <path d="M118.837,64.12C118.837,64.12 123.665,63.215 127.663,63.215L128.979,60.046L128.979,50.542C128.979,50.542 118.301,49.813 116.306,63.152C116.306,63.152 118.385,62.159 118.837,64.12Z" style="fill:rgb(54,59,76);fill-rule:nonzero;"/>
            <path d="M139.123,64.12C139.123,64.12 134.295,63.215 130.297,63.215L128.979,60.046L128.979,50.542C128.979,50.542 139.659,49.813 141.654,63.152C141.654,63.152 139.576,62.159 139.123,64.12Z" style="fill:rgb(54,59,76);fill-rule:nonzero;"/>
            <path d="M128.979,79.244C119.419,79.552 118.437,69.063 118.437,69.063C118.437,69.063 116.818,69.026 115.779,67.172" style="fill:none;stroke:rgb(243,121,125);stroke-width:0.23px;"/>
            <path d="M128.979,79.244C138.541,79.552 139.523,69.063 139.523,69.063C139.523,69.063 141.664,68.352 142.182,67.172" style="fill:none;stroke:rgb(243,121,125);stroke-width:0.23px;"/>
            <path d="M139.523,65.109C139.523,65.109 140.082,63.585 141.122,63.862C142.161,64.139 142.429,65.841 141.122,67.398C141.122,67.398 140.636,66.496 139.909,66.738" style="fill:none;stroke:rgb(243,121,125);stroke-width:0.12px;"/>
            <path d="M140.764,66.951C140.764,66.951 142.035,65.299 140.764,63.835" style="fill:none;stroke:rgb(243,121,125);stroke-width:0.12px;"/>
            <path d="M118.437,65.109C118.437,65.109 117.878,63.585 116.839,63.862C115.799,64.139 115.531,65.841 116.839,67.398C116.839,67.398 117.324,66.496 118.052,66.738" style="fill:none;stroke:rgb(243,121,125);stroke-width:0.12px;"/>
            <path d="M117.196,66.951C117.196,66.951 115.925,65.299 117.196,63.835" style="fill:none;stroke:rgb(243,121,125);stroke-width:0.12px;"/>
            <path d="M139.846,63.863L139.369,66.895L138.426,62.438L139.846,63.863Z" style="fill:rgb(54,59,76);fill-rule:nonzero;"/>
            <path d="M119.251,67.398L120.133,62.79L118.837,64.12L119.251,67.398Z" style="fill:rgb(54,59,76);fill-rule:nonzero;"/>
        </g>
    </g>
</svg>
